PathFileType	4	(X/Y/Z)	SUBJ89_2_walk_RCNL2025.trc
DataRate	CameraRate	NumFrames	NumMarkers	Units	OrigDataRate	OrigDataStartFrame	OrigNumFrames
100	100	7	25	mm	100	35	274
Frame#	Time	R_Shoulder			L_Shoulder			C7			J_Notch			R_Elbow			L_Elbow			R_Wrist			L_Wrist			R_Asis			L_Asis			Sacral			Thoracic			Sternum			R_Thigh_Lateral			R_Knee_Lateral			R_Shank_Lateral			R_Ankle_Lateral			R_Heel			R_Toe			L_Thigh_Lateral			L_Knee_Lateral			L_Shank_Lateral			L_Ankle_Lateral			L_Heel			L_Toe		
		X1	Y1	Z1	X2	Y2	Z2	X3	Y3	Z3	X4	Y4	Z4	X5	Y5	Z5	X6	Y6	Z6	X7	Y7	Z7	X8	Y8	Z8	X9	Y9	Z9	X10	Y10	Z10	X11	Y11	Z11	X12	Y12	Z12	X13	Y13	Z13	X14	Y14	Z14	X15	Y15	Z15	X16	Y16	Z16	X17	Y17	Z17	X18	Y18	Z18	X19	Y19	Z19	X20	Y20	Z20	X21	Y21	Z21	X22	Y22	Z22	X23	Y23	Z23	X24	Y24	Z24	X25	Y25	Z25
35	0.34000000	-594.118774	1427.078125	-51.921131	-611.955872	1431.683350	-467.351593	-668.467224	1522.132935	-257.549744	-553.188599	1394.510254	-257.964508	-700.803833	1105.268066	-9.399445	-675.951599	1093.552490	-504.770752	-619.753021	846.577789	-7.716423	-594.888489	838.370789	-507.638565	-580.295105	1000.089111	-130.783478	-569.697937	1000.666931	-368.243195	-741.994385	1060.500122	-244.819321	-756.320007	1344.576294	-253.626526	-523.284302	1246.104858	-265.239868	-549.553345	623.421387	-60.880219	-530.294128	513.093872	-113.332123	-668.687195	341.767120	-80.413261	-795.663147	179.871140	-160.041138	-825.522217	190.991379	-210.046936	-688.915955	69.374702	-166.647278	-594.069275	569.566101	-439.540375	-602.427185	487.689209	-362.031494	-663.527344	260.235779	-402.369232	-698.901306	68.841995	-327.495575	-737.837097	77.936714	-280.433716	-544.887329	35.485172	-314.901978
36	0.35000000	-581.184875	1427.809692	-51.660011	-597.835388	1433.179688	-467.097473	-655.058289	1522.794067	-257.391449	-539.667419	1395.345825	-257.675110	-690.444763	1106.766968	-9.478885	-657.930481	1094.527954	-506.830139	-610.770599	847.649323	-6.843782	-569.528198	841.387604	-506.636719	-566.264893	1001.395142	-131.307129	-555.951416	1001.088440	-368.644226	-728.089233	1061.120605	-245.178268	-742.731140	1345.050903	-254.025406	-509.680115	1247.003296	-265.166870	-528.819153	626.706787	-60.519173	-507.537933	516.276306	-113.034042	-637.843079	338.147278	-79.657608	-757.352905	170.576553	-158.944321	-788.041382	179.934006	-208.887909	-644.649963	66.253731	-166.236511	-589.362305	569.455322	-440.155914	-599.490173	487.333923	-362.367737	-662.190552	260.248993	-402.513000	-698.740784	69.180222	-327.416260	-737.507812	78.443169	-280.280701	-544.795593	35.428890	-314.908936
37	0.36000000	-568.218811	1428.145508	-51.356323	-583.761536	1434.299683	-466.786804	-641.672302	1523.099976	-257.170776	-526.175171	1395.821899	-257.339020	-679.987915	1107.869873	-9.506675	-639.904663	1095.184448	-508.825897	-601.486603	848.364838	-5.928054	-544.139252	844.370026	-505.558319	-552.215393	1002.228821	-131.765701	-542.199463	1001.152405	-369.009216	-714.192200	1061.378784	-245.484314	-729.165100	1345.175171	-254.341614	-496.082184	1247.544434	-265.057159	-508.594513	629.618408	-60.234356	-485.446472	519.018250	-112.773872	-607.008789	334.175629	-78.879410	-718.215332	160.895416	-157.763397	-749.644470	168.396286	-207.649002	-599.788208	63.269779	-165.539459	-584.559387	569.301697	-440.765076	-596.462585	486.975311	-362.734344	-660.849915	260.269440	-402.667175	-698.591614	69.497223	-327.290863	-737.141418	78.965355	-280.091339	-544.715637	35.371742	-314.933624
38	0.37000000	-555.233398	1428.074219	-51.003757	-569.735962	1435.007324	-466.421448	-628.296082	1523.043701	-256.892426	-512.698608	1395.928833	-256.958099	-669.402832	1108.549927	-9.478804	-621.860535	1095.493042	-510.744659	-591.881561	848.693420	-4.981326	-518.757599	847.298859	-504.424881	-538.143616	1002.575073	-132.162476	-528.455078	1000.841187	-369.335632	-700.297607	1061.276245	-245.740326	-715.609192	1344.945312	-254.574356	-482.483368	1247.711914	-264.901428	-488.895996	632.089905	-60.018387	-464.059448	521.263062	-112.546089	-576.247192	329.921753	-78.071945	-678.273010	151.013077	-156.493774	-710.335632	156.572067	-206.328568	-554.407776	60.578556	-164.574692	-579.566223	569.077759	-441.327118	-593.294312	486.606323	-363.117310	-659.534363	260.304230	-402.807831	-698.434570	69.805931	-327.100250	-736.740051	79.507713	-279.838562	-544.644226	35.321083	-314.981750
39	0.38000000	-542.237061	1427.593628	-50.599274	-555.761475	1435.279907	-466.002228	-614.918457	1522.623413	-256.558380	-499.224457	1395.661621	-256.532196	-658.653809	1108.789307	-9.391142	-603.778931	1095.438599	-512.573792	-581.947418	848.616974	-4.012036	-493.418762	850.150726	-503.251053	-524.051758	1002.430481	-132.501144	-514.727356	1000.150513	-369.622314	-686.399902	1060.820435	-245.946060	-702.051453	1344.362305	-254.720764	-468.877563	1247.495483	-264.689514	-469.752167	634.058044	-59.859566	-443.416656	522.961548	-112.346817	-545.602844	325.453003	-77.224571	-637.553345	141.124451	-155.120453	-670.136169	144.674408	-204.904404	-508.596344	58.335453	-163.393219	-574.306213	568.750000	-441.807800	-589.929626	486.214111	-363.498718	-658.242188	260.357635	-402.910126	-698.258972	70.122124	-326.825287	-736.309265	80.081665	-279.494141	-544.572876	35.286690	-315.054901
40	0.39000000	-529.233459	1426.709961	-50.141933	-541.839600	1435.108643	-465.530975	-601.528931	1521.842163	-256.169098	-485.740356	1395.020264	-256.059906	-647.706116	1108.580200	-9.237799	-585.638611	1095.018555	-514.300293	-571.682770	848.125641	-3.026334	-468.159866	852.899597	-502.039490	-509.943512	1001.801758	-132.784332	-501.021179	999.088379	-369.870361	-672.493835	1060.022827	-246.097870	-688.480957	1343.432739	-254.777100	-455.258026	1246.889893	-264.413605	-451.210419	635.462036	-59.744205	-423.553955	524.075745	-112.172600	-515.105103	320.844971	-76.324738	-596.099365	131.438950	-153.619446	-629.081909	132.926910	-203.344498	-462.450714	56.696793	-162.071671	-568.730225	568.282959	-442.183929	-586.310181	485.781067	-363.855560	-656.938538	260.430145	-402.951660	-698.061768	70.461044	-326.446777	-735.853088	80.699791	-279.029663	-544.494507	35.273499	-315.147278
41	0.40000000	-516.223145	1425.436523	-49.632179	-527.968506	1434.498901	-465.011536	-588.116638	1520.707886	-255.724930	-472.234985	1394.009888	-255.541443	-636.528076	1107.924561	-9.013278	-567.418152	1094.242065	-515.909668	-561.090942	847.216217	-2.028561	-443.021423	855.519318	-500.780289	-495.819702	1000.704163	-133.013657	-487.335815	997.675598	-370.083496	-658.573608	1058.896851	-246.188232	-674.888245	1342.169312	-254.739716	-441.617371	1245.895508	-264.071869	-433.338257	636.243286	-59.657883	-404.497864	524.583435	-112.019051	-484.781586	316.192017	-75.359604	-553.982971	122.177597	-151.964050	-587.235962	121.563248	-201.614578	-416.079926	55.817734	-160.703171	-562.820007	567.648621	-442.445801	-582.381592	485.288757	-364.161285	-655.567627	260.520599	-402.914246	-697.843994	70.837135	-325.951263	-735.371338	81.372910	-278.425323	-544.410889	35.276230	-315.245117
